<?xml version="1.0" standalone="no"?>
<!DOCTYPE svg PUBLIC "-//W3C//DTD SVG 20010904//EN"
 "http://www.w3.org/TR/2001/REC-SVG-20010904/DTD/svg10.dtd">
<svg version="1.0" xmlns="http://www.w3.org/2000/svg"
 width="512.000000pt" height="512.000000pt" viewBox="0 0 512.000000 512.000000"
 preserveAspectRatio="xMidYMid meet">

<g transform="translate(0.000000,512.000000) scale(0.100000,-0.100000)"
fill="#884dff" stroke="none">
<path d="M806 5051 c256 -151 562 -414 900 -773 106 -112 243 -263 305 -337
63 -74 186 -211 274 -303 236 -249 330 -353 496 -551 294 -349 481 -623 607
-885 l47 -97 3 95 c14 434 -263 1047 -724 1601 -35 43 -64 81 -64 87 0 5 15
21 34 36 50 38 80 105 74 167 -6 56 -28 93 -78 126 -71 49 -148 39 -226 -28
l-46 -40 -127 123 c-328 318 -648 547 -961 688 -192 86 -432 150 -564 150
l-50 0 100 -59z"/>
<path d="M3384 3846 c-26 -22 -28 -30 -32 -117 -5 -120 8 -173 49 -195 39 -20
82 -11 109 23 17 22 20 41 20 143 0 110 -1 119 -25 144 -32 34 -83 35 -121 2z"/>
<path d="M1115 3000 c-465 -435 -820 -774 -832 -796 -57 -98 0 -229 110 -254
68 -15 122 5 195 74 37 34 408 381 825 770 l758 708 -88 92 c-49 50 -101 108
-117 129 -16 20 -31 37 -35 36 -3 0 -370 -342 -816 -759z"/>
<path d="M3760 3688 c-30 -16 -139 -219 -140 -261 -1 -66 92 -104 144 -59 30
28 116 208 116 245 0 58 -68 101 -120 75z"/>
<path d="M4991 3308 c-106 -247 -128 -291 -152 -303 -21 -12 -69 -15 -203 -15
-244 0 -218 34 -267 -355 -35 -281 -41 -311 -61 -332 -21 -20 -55 -27 -301
-63 -153 -22 -285 -43 -292 -48 -8 -4 -69 -61 -135 -127 l-121 -119 29 -40
c41 -58 86 -149 113 -231 19 -60 23 -94 25 -245 1 -96 7 -203 14 -238 59 -325
255 -504 555 -504 166 0 228 36 382 218 55 65 127 144 159 174 94 86 218 140
327 140 29 0 50 5 52 13 3 6 4 541 3 1188 l-3 1176 -124 -289z"/>
<path d="M3811 3038 c22 -78 -1 -198 -61 -320 -23 -46 -35 -80 -29 -84 23 -14
209 -17 254 -4 135 38 107 184 -67 353 -49 48 -94 87 -98 87 -5 0 -4 -15 1
-32z"/>
<path d="M2327 2526 c-14 -13 -31 -43 -38 -67 -13 -47 -14 -246 -1 -312 l7
-37 90 60 c168 113 346 200 413 200 26 1 26 1 7 16 -43 34 -264 134 -325 149
-92 21 -123 19 -153 -9z"/>
<path d="M2884 1979 c-16 -16 -247 -303 -514 -637 -267 -334 -497 -614 -512
-622 -26 -14 -44 -9 -399 109 -305 101 -376 122 -399 115 -24 -8 -1040 -926
-1040 -940 0 -2 571 -4 1268 -4 l1268 0 12 72 c16 89 60 180 115 238 23 24 83
76 132 115 120 96 142 123 211 256 54 103 70 124 180 235 97 98 128 136 162
202 145 279 99 586 -121 801 l-55 54 -109 18 c-149 26 -164 25 -199 -12z"/>
<path d="M5015 1036 c-102 -25 -150 -63 -290 -227 l-104 -122 77 -26 c178 -60
277 -146 409 -357 9 -15 12 63 12 364 l1 382 -27 -1 c-16 0 -50 -6 -78 -13z"/>
<path d="M3480 962 c-14 -20 -77 -91 -140 -157 -139 -146 -174 -207 -175 -305
0 -75 20 -130 95 -255 48 -79 90 -185 90 -225 0 -20 2 -20 840 -20 462 0 840
2 840 4 0 2 -9 35 -21 72 -69 226 -215 379 -410 431 -48 12 -93 16 -184 13
-281 -9 -356 -6 -435 19 -127 39 -206 86 -297 177 -69 69 -89 98 -130 182
l-49 100 -24 -36z"/>
<path d="M2914 280 c-120 -94 -174 -174 -174 -257 l0 -23 216 0 217 0 -7 33
c-4 17 -29 71 -56 118 -28 48 -61 112 -75 143 -14 31 -27 56 -29 56 -2 0 -44
-31 -92 -70z"/>
</g>
</svg>
